<svg width="52" height="52" viewBox="0 0 52 52" fill="none" xmlns="http://www.w3.org/2000/svg">
<circle cx="26" cy="26" r="25" stroke="#FF8A00"/>
<path fill-rule="evenodd" clip-rule="evenodd" d="M36.6339 17.9745C35.4902 16.8303 33.9388 16.1875 32.3211 16.1875C30.7034 16.1875 29.152 16.8303 28.0084 17.9745L26.8332 19.1497L25.658 17.9745C23.2761 15.5926 19.4144 15.5926 17.0325 17.9745C14.6506 20.3564 14.6506 24.2181 17.0325 26.6L18.2077 27.7752L26.8332 36.4007L35.4587 27.7752L36.6339 26.6C37.778 25.4564 38.4208 23.9049 38.4208 22.2872C38.4208 20.6695 37.778 19.1181 36.6339 17.9745Z" fill="#FF8A00" stroke="#FF8A00" stroke-width="2.17391" stroke-linecap="round" stroke-linejoin="round"/>
<path d="M36.0519 27.3342C36.1579 27.2283 36.2837 27.1442 36.4221 27.0869C36.5606 27.0295 36.709 27 36.8588 27C37.0087 27 37.1571 27.0295 37.2955 27.0869C37.434 27.1442 37.5598 27.2283 37.6658 27.3342C37.7717 27.4402 37.8558 27.566 37.9131 27.7045C37.9705 27.8429 38 27.9913 38 28.1412C38 28.291 37.9705 28.4394 37.9131 28.5779C37.8558 28.7163 37.7717 28.8421 37.6658 28.9481L32.219 34.3948L30 35L30.6052 32.781L36.0519 27.3342Z" stroke="#FFF7EC" stroke-width="3" stroke-linecap="round" stroke-linejoin="round"/>
<path d="M36.0519 27.3342C36.1579 27.2283 36.2837 27.1442 36.4221 27.0869C36.5606 27.0295 36.709 27 36.8588 27C37.0087 27 37.1571 27.0295 37.2955 27.0869C37.434 27.1442 37.5598 27.2283 37.6658 27.3342C37.7717 27.4402 37.8558 27.566 37.9131 27.7045C37.9705 27.8429 38 27.9913 38 28.1412C38 28.291 37.9705 28.4394 37.9131 28.5779C37.8558 28.7163 37.7717 28.8421 37.6658 28.9481L32.219 34.3948L30 35L30.6052 32.781L36.0519 27.3342Z" fill="#FF8A00"/>
</svg>
