<svg width="52" height="52" viewBox="0 0 52 52" fill="none" xmlns="http://www.w3.org/2000/svg">
<circle cx="26" cy="26" r="25" stroke="#FF8A00" stroke-opacity="0.2"/>
<path fill-rule="evenodd" clip-rule="evenodd" d="M36.6339 17.9745C35.4902 16.8303 33.9388 16.1875 32.3211 16.1875C30.7034 16.1875 29.152 16.8303 28.0084 17.9745L26.8332 19.1497L25.658 17.9745C23.2761 15.5926 19.4144 15.5926 17.0325 17.9745C14.6506 20.3564 14.6506 24.2181 17.0325 26.6L18.2077 27.7752L26.8332 36.4007L35.4587 27.7752L36.6339 26.6C37.778 25.4564 38.4208 23.9049 38.4208 22.2872C38.4208 20.6695 37.778 19.1181 36.6339 17.9745Z" fill="#FF8A00" stroke="#FF8A00" stroke-width="2.17391" stroke-linecap="round" stroke-linejoin="round"/>
<path d="M30.1636 34.8314L31.0475 33.9475L30.1636 34.8314C30.5354 35.2031 31.0422 35.4175 31.5775 35.4175C32.1128 35.4175 32.6196 35.2031 32.9914 34.8314L32.1075 33.9475L32.9914 34.8314L38.6614 29.1614C39.4395 28.3832 39.4395 27.1118 38.6614 26.3336C37.8832 25.5555 36.6118 25.5555 35.8336 26.3336L31.5775 30.5897L30.1614 29.1736C29.3832 28.3955 28.1118 28.3955 27.3336 29.1736C26.5555 29.9518 26.5555 31.2232 27.3336 32.0014L30.1636 34.8314Z" fill="#FFF7EC" stroke="#FFF7EC" stroke-width="2.5"/>
<path d="M30.8707 34.1243C31.0571 34.3106 31.3104 34.4175 31.5775 34.4175C31.8446 34.4175 32.0979 34.3106 32.2843 34.1243L37.9543 28.4543C38.3419 28.0666 38.3419 27.4284 37.9543 27.0407C37.5666 26.6531 36.9284 26.6531 36.5407 27.0407L31.5775 32.0039L29.4543 29.8807C29.0666 29.4931 28.4284 29.4931 28.0407 29.8807C27.6531 30.2684 27.6531 30.9066 28.0407 31.2943L30.8707 34.1243Z" fill="#FF8A00" stroke="#FF8A00" stroke-width="0.5"/>
</svg>
