<svg width="52" height="52" viewBox="0 0 52 52" fill="none" xmlns="http://www.w3.org/2000/svg">
<path d="M30 30.5H37" stroke="#FF8A00" stroke-width="2" stroke-linecap="round"/>
<path d="M33.5 27L33.5 34" stroke="#FF8A00" stroke-width="2" stroke-linecap="round"/>
<circle cx="26" cy="26" r="25" stroke="#FF8A00"/>
<path fill-rule="evenodd" clip-rule="evenodd" d="M36.6339 17.9745C35.4902 16.8303 33.9388 16.1875 32.3211 16.1875C30.7034 16.1875 29.152 16.8303 28.0084 17.9745L26.8332 19.1497L25.658 17.9745C23.2761 15.5926 19.4144 15.5926 17.0325 17.9745C14.6506 20.3564 14.6506 24.2181 17.0325 26.6L18.2077 27.7752L26.8332 36.4007L35.4587 27.7752L36.6339 26.6C37.778 25.4564 38.4208 23.9049 38.4208 22.2872C38.4208 20.6695 37.778 19.1181 36.6339 17.9745Z" stroke="#FF8A00" stroke-width="2.17391" stroke-linecap="round" stroke-linejoin="round"/>
<circle cx="33.5" cy="30.5" r="5.5" fill="#FFF7EC"/>
<path d="M30 30.5H37" stroke="#FF8A00" stroke-width="2" stroke-linecap="round"/>
<path d="M33.5 27L33.5 34" stroke="#FF8A00" stroke-width="2" stroke-linecap="round"/>
</svg>
